<?xml version="1.0" standalone="no"?>
<!DOCTYPE svg PUBLIC "-//W3C//DTD SVG 20010904//EN"
 "http://www.w3.org/TR/2001/REC-SVG-20010904/DTD/svg10.dtd">
<svg version="1.0" xmlns="http://www.w3.org/2000/svg"
 width="1024.000000pt" height="1024.000000pt" viewBox="0 0 1024.000000 1024.000000"
 preserveAspectRatio="xMidYMid meet">

<g transform="translate(0.000000,1024.000000) scale(0.100000,-0.100000)"
fill="#000000" stroke="none">
<path d="M4010 7837 c-36 -19 -653 -416 -965 -621 l-169 -111 112 -3 112 -3 0
-121 c0 -120 0 -121 -30 -155 -33 -37 -38 -72 -16 -106 13 -20 12 -34 -13
-133 -16 -61 -34 -141 -42 -179 -13 -66 -13 -68 10 -86 14 -11 39 -19 62 -19
22 0 51 -7 65 -16 16 -11 36 -15 60 -11 56 9 67 23 59 76 -7 46 -45 219 -66
298 -9 35 -8 46 6 71 23 39 13 96 -20 118 -24 16 -25 20 -25 141 l0 125 48 -6
c26 -3 270 -8 543 -12 l496 -7 109 63 c173 100 799 477 904 544 l95 61 -95 7
c-398 31 -780 62 -973 79 -269 23 -236 22 -267 6z"/>
<path d="M4915 7406 c-11 -7 -128 -75 -259 -151 -132 -76 -276 -160 -320 -186
l-81 -49 -462 0 -463 0 0 -22 c0 -42 39 -271 47 -279 36 -35 536 -46 727 -16
335 53 598 166 871 376 33 25 61 46 63 47 5 2 -92 294 -97 293 -3 0 -15 -6
-26 -13z"/>
<path d="M4993 7022 c-54 -43 -109 -85 -123 -95 -23 -16 24 -17 902 -17 l926
0 5 -22 c3 -13 6 -373 6 -800 l0 -778 -1574 0 -1575 0 0 655 0 655 -57 0 c-32
0 -75 3 -95 6 l-38 7 0 -778 0 -777 34 -34 34 -34 1681 0 c1849 0 1723 -4
1756 60 13 26 15 144 13 995 l-3 965 -33 32 -32 33 -864 3 -865 2 -98 -78z"/>
<path d="M5007 6118 c-92 -277 -167 -509 -167 -516 0 -8 17 -12 48 -12 26 0
63 -3 82 -6 l36 -6 18 57 c10 31 15 59 13 62 -3 3 -13 -20 -23 -51 -14 -45
-22 -56 -38 -55 -16 1 -17 2 -4 6 22 6 78 171 72 215 -3 26 -2 29 5 13 l10
-20 1 20 c2 11 1 27 0 35 -1 11 1 12 10 3 10 -9 7 -26 -10 -78 -12 -36 -20
-68 -18 -70 3 -4 298 862 298 876 0 4 -21 10 -47 13 -27 4 -64 9 -83 12 l-36
5 -167 -503z m276 477 c40 -5 47 -9 42 -23 -4 -9 -60 -174 -125 -367 -65 -192
-119 -340 -119 -328 -1 12 -4 23 -8 26 -5 2 -3 3 3 1 13 -3 48 100 47 141 -1
18 1 22 4 11 7 -26 73 178 73 227 0 26 4 37 15 37 8 0 15 5 15 11 0 5 -6 7
-12 3 -7 -4 -10 -4 -6 0 3 4 9 6 13 4 11 -5 66 164 59 186 -4 15 -3 17 4 8 7
-11 10 -9 14 6 4 14 1 19 -11 18 -9 0 -15 4 -14 10 1 6 -19 16 -45 22 -41 9
-45 9 -28 -4 18 -13 18 -15 1 -14 -8 1 -35 -27 -35 -35 0 -3 4 -4 8 -1 4 2 8
-5 9 -17 0 -12 -1 -16 -4 -9 -3 6 -9 12 -15 12 -6 0 -8 -7 -4 -15 3 -8 2 -15
-2 -15 -12 0 -43 -93 -44 -131 -1 -19 -7 -38 -13 -44 -19 -16 -77 -189 -69
-208 4 -11 1 -23 -9 -30 -8 -7 -23 -38 -32 -69 -10 -32 -24 -66 -31 -75 -7
-10 39 138 102 329 l115 347 27 -4 c15 -2 49 -7 75 -10z m-255 -565 c-7 -11
-14 -17 -17 -15 -2 3 1 11 7 18 7 8 8 18 4 22 -4 5 -1 5 5 1 10 -5 10 -11 1
-26z m-72 -155 c0 -19 -3 -30 -6 -24 -4 5 -14 -14 -23 -43 -23 -78 -46 -135
-47 -117 0 12 39 137 65 207 8 21 11 14 11 -23z m-80 -221 c-4 -9 -1 -23 5
-30 10 -12 8 -13 -6 -8 -13 5 -16 4 -11 -4 4 -7 2 -12 -3 -12 -14 0 -14 13 1
45 12 27 24 35 14 9z"/>
<path d="M4382 6297 l-303 -152 3 -85 3 -85 300 -152 c165 -84 303 -152 308
-153 4 0 7 42 7 93 l0 93 -204 99 c-164 81 -203 104 -202 119 2 18 40 45 61
45 6 0 -6 -8 -25 -19 -19 -11 -29 -19 -22 -20 7 0 98 43 202 95 l190 95 0 90
c0 50 -3 90 -7 89 -5 0 -144 -69 -311 -152z m307 58 c-1 -41 -6 -79 -13 -84
-26 -21 -309 -150 -289 -131 12 11 27 20 34 20 14 0 133 62 137 72 2 5 12 8
22 8 32 0 81 33 76 52 -2 9 0 18 4 20 5 2 10 21 12 43 2 30 -1 40 -13 43 -21
4 -150 -58 -143 -69 3 -5 -1 -6 -9 -3 -7 2 -94 -36 -192 -86 -97 -50 -180 -89
-182 -86 -6 5 532 276 548 276 5 0 9 -32 8 -75z m-577 -217 c-5 -7 -10 -41
-11 -75 l-1 -63 32 -1 c31 -1 32 -1 8 -9 -21 -7 -11 -15 13 -11 5 1 6 -3 3 -8
-3 -5 8 -14 24 -21 17 -7 29 -15 27 -17 -3 -2 -29 8 -59 23 l-55 27 -2 75 c-2
53 2 78 11 83 19 12 22 11 10 -3z m381 -193 l197 -98 0 -84 0 -83 -151 76
c-83 41 -149 77 -147 79 2 3 66 -27 141 -65 76 -39 140 -70 142 -70 2 0 3 31
2 70 -2 64 -7 75 -30 71 -5 -1 -6 2 -3 7 3 5 -41 31 -97 59 -206 100 -287 145
-287 155 0 7 7 5 18 -4 9 -8 106 -59 215 -113z m-219 -36 c-2 -3 21 -19 52
-34 30 -15 53 -30 50 -32 -4 -4 -146 64 -146 71 0 2 11 3 24 2 13 0 22 -4 20
-7z"/>
<path d="M5450 6357 l0 -92 201 -98 c110 -54 203 -96 205 -94 3 3 -23 18 -58
35 -54 26 -59 30 -31 29 17 -1 29 -6 25 -11 -3 -5 3 -6 14 -2 10 4 15 4 11 0
-4 -4 11 -18 33 -31 22 -13 40 -28 40 -32 0 -14 -58 -63 -68 -57 -12 7 -132
-51 -132 -64 0 -5 -7 -7 -15 -4 -8 4 -15 1 -15 -7 0 -7 -3 -10 -6 -7 -10 11
-145 -62 -138 -74 4 -6 3 -8 -2 -5 -18 10 -32 -7 -34 -43 -5 -62 0 -101 10
-95 6 4 8 10 5 15 -3 4 4 6 16 3 19 -5 20 -4 10 16 -8 14 -8 21 -1 21 5 0 10
-7 10 -15 0 -8 5 -15 11 -15 5 0 7 5 3 12 -4 7 -3 8 4 4 6 -4 21 -2 33 5 15 8
19 8 15 0 -6 -9 -120 -71 -132 -71 -2 0 -4 37 -4 83 l0 82 210 105 c116 57
210 106 210 110 0 3 -96 -41 -212 -99 l-213 -106 -3 -92 c-2 -71 0 -93 10 -93
7 0 148 69 313 154 l300 154 3 81 3 81 -262 131 c-144 72 -286 141 -316 154
l-53 24 0 -92z m286 -59 c145 -72 262 -133 260 -135 -2 -2 -80 34 -173 80
-132 67 -175 84 -197 80 -20 -4 -27 -2 -22 5 4 6 14 9 24 6 9 -3 -14 11 -52
31 -38 20 -76 34 -85 33 -11 -2 -16 -19 -18 -61 -2 -55 -1 -58 20 -53 12 3 16
3 9 0 -20 -9 36 -44 71 -44 16 0 26 -4 22 -10 -7 -12 116 -70 148 -70 19 -1
20 -2 5 -11 -13 -7 -48 6 -152 58 l-136 68 0 77 c0 43 3 78 6 78 4 0 125 -59
270 -132z m334 -191 c0 -12 -5 -29 -10 -37 -7 -11 -10 -5 -10 23 0 30 -4 40
-20 44 -11 3 -20 9 -20 14 0 5 14 3 30 -6 20 -10 30 -23 30 -38z m-17 -127
c-16 -15 -427 -220 -431 -215 -2 2 12 12 31 21 20 10 33 22 30 27 -3 6 -1 7 5
3 18 -11 158 66 154 85 -1 9 4 16 12 16 12 0 13 -4 5 -14 -17 -20 -5 -16 61
20 33 19 57 37 52 42 -4 4 -2 5 5 2 14 -9 45 2 38 13 -3 4 3 7 13 6 12 -1 18
8 22 34 l4 35 4 -34 c2 -18 0 -37 -5 -41z"/>
<path d="M4587 4883 c-9 -38 -21 -94 -28 -125 l-12 -57 -192 -3 -192 -3 -38
-30 c-26 -19 -50 -29 -70 -28 l-30 2 29 -7 c17 -4 29 -10 28 -14 -1 -5 -2 -20
-2 -35 -1 -26 -2 -27 -14 -10 -11 14 -15 15 -19 4 -6 -15 27 -49 37 -40 3 4 6
-1 6 -10 0 -16 78 -17 1078 -15 592 1 1056 3 1030 5 l-48 4 0 57 0 57 -47 30
c-48 30 -49 30 -228 35 l-180 5 -25 120 -25 120 -522 3 -521 2 -15 -67z"/>
<path d="M3933 4623 c15 -2 37 -2 50 0 12 2 0 4 -28 4 -27 0 -38 -2 -22 -4z"/>
<path d="M6273 4623 c15 -2 37 -2 50 0 12 2 0 4 -28 4 -27 0 -38 -2 -22 -4z"/>
<path d="M3828 4613 c6 -2 18 -2 25 0 6 3 1 5 -13 5 -14 0 -19 -2 -12 -5z"/>
<path d="M6383 4613 c9 -2 25 -2 35 0 9 3 1 5 -18 5 -19 0 -27 -2 -17 -5z"/>
<path d="M3728 4603 c6 -2 18 -2 25 0 6 3 1 5 -13 5 -14 0 -19 -2 -12 -5z"/>
<path d="M3633 4593 c9 -2 25 -2 35 0 9 3 1 5 -18 5 -19 0 -27 -2 -17 -5z"/>
<path d="M6598 4593 c7 -3 16 -2 19 1 4 3 -2 6 -13 5 -11 0 -14 -3 -6 -6z"/>
<path d="M3568 4583 c6 -2 18 -2 25 0 6 3 1 5 -13 5 -14 0 -19 -2 -12 -5z"/>
<path d="M6668 4583 c6 -2 18 -2 25 0 6 3 1 5 -13 5 -14 0 -19 -2 -12 -5z"/>
<path d="M3518 4573 c7 -3 16 -2 19 1 4 3 -2 6 -13 5 -11 0 -14 -3 -6 -6z"/>
<path d="M6788 4563 c6 -2 18 -2 25 0 6 3 1 5 -13 5 -14 0 -19 -2 -12 -5z"/>
<path d="M3488 4553 c7 -3 16 -2 19 1 4 3 -2 6 -13 5 -11 0 -14 -3 -6 -6z"/>
<path d="M3578 4543 c7 -3 16 -2 19 1 4 3 -2 6 -13 5 -11 0 -14 -3 -6 -6z"/>
<path d="M6663 4543 c9 -2 23 -2 30 0 6 3 -1 5 -18 5 -16 0 -22 -2 -12 -5z"/>
<path d="M3678 4533 c12 -2 32 -2 45 0 12 2 2 4 -23 4 -25 0 -35 -2 -22 -4z"/>
<path d="M6543 4533 c15 -2 37 -2 50 0 12 2 0 4 -28 4 -27 0 -38 -2 -22 -4z"/>
<path d="M3823 4523 c15 -2 39 -2 55 0 15 2 2 4 -28 4 -30 0 -43 -2 -27 -4z"/>
<path d="M6378 4523 c17 -2 47 -2 65 0 17 2 3 4 -33 4 -36 0 -50 -2 -32 -4z"/>
<path d="M3998 4513 c18 -2 45 -2 60 0 15 2 0 4 -33 4 -33 0 -45 -2 -27 -4z"/>
<path d="M3305 4111 c-108 -26 -175 -117 -175 -238 l0 -43 -40 0 -40 0 0 -65
0 -65 40 0 40 0 0 -245 0 -245 100 0 100 0 0 245 0 245 70 0 70 0 0 65 0 65
-71 0 -71 0 4 55 c6 72 27 95 85 95 24 0 53 -5 65 -11 11 -6 21 -9 22 -7 2 2
6 33 10 69 l6 67 -44 11 c-49 12 -124 13 -171 2z"/>
<path d="M2110 3650 l0 -440 105 0 105 0 0 440 0 440 -105 0 -105 0 0 -440z"/>
<path d="M4230 4053 c0 -21 -6 -153 -14 -293 -8 -140 -18 -321 -21 -402 l-7
-148 90 0 c78 0 91 2 96 18 2 9 8 98 11 197 4 99 10 210 14 247 l6 68 100
-218 100 -217 51 -3 c33 -2 54 2 61 10 6 7 53 106 105 220 l95 208 6 -107 c4
-58 7 -157 7 -218 0 -62 3 -133 6 -159 l7 -46 88 0 c86 0 89 1 89 23 0 84 -21
689 -26 765 l-6 92 -93 0 -92 0 -103 -222 c-56 -123 -107 -235 -112 -250 -12
-35 -24 -36 -32 -3 -4 14 -53 125 -110 248 l-104 222 -106 3 -106 3 0 -38z"/>
<path d="M6448 3997 l-88 -20 0 -74 0 -73 -40 0 -40 0 0 -65 0 -65 39 0 40 0
3 -187 c3 -212 12 -245 75 -284 43 -27 142 -36 212 -19 l51 12 0 48 c0 73 -4
78 -59 72 -75 -7 -81 7 -81 200 l0 158 70 0 70 0 0 65 0 65 -70 0 -70 0 0 95
c0 70 -3 95 -12 94 -7 -1 -52 -10 -100 -22z"/>
<path d="M7705 3843 c-47 -12 -88 -38 -111 -72 -23 -34 -24 -34 -24 -11 -1 67
-4 70 -101 70 l-89 0 0 -310 0 -310 94 0 94 0 4 178 c2 147 6 183 21 210 26
48 72 72 135 72 l53 0 -3 88 c-3 85 -4 87 -28 89 -14 0 -34 -1 -45 -4z"/>
<path d="M2685 3824 c-16 -9 -42 -28 -57 -42 l-28 -26 0 37 0 37 -95 0 -95 0
0 -310 0 -310 99 0 100 0 3 221 3 221 28 24 c37 31 81 31 112 -1 l25 -24 0
-221 0 -220 100 0 100 0 0 214 c0 287 -10 335 -84 390 -37 28 -167 34 -211 10z"/>
<path d="M3641 3809 c-110 -55 -163 -154 -162 -301 0 -74 4 -90 33 -148 55
-107 150 -160 282 -160 126 1 226 61 277 166 30 61 33 76 34 158 0 77 -4 99
-26 146 -55 116 -147 170 -293 170 -73 0 -90 -4 -145 -31z m218 -132 c45 -37
58 -191 23 -271 -23 -51 -45 -66 -97 -66 -51 0 -91 41 -100 103 -13 83 -2 179
23 215 36 50 103 59 151 19z"/>
<path d="M5315 3826 c-51 -16 -105 -44 -105 -54 0 -9 31 -115 34 -119 2 -2 22
7 47 19 47 23 131 35 173 24 27 -7 56 -51 56 -86 0 -18 -6 -20 -72 -20 -123 0
-225 -47 -264 -122 -38 -74 -11 -190 54 -234 67 -46 186 -38 255 17 38 31 42
30 49 -16 3 -18 12 -20 88 -23 l85 -3 -3 208 c-1 114 -7 232 -13 261 -14 69
-62 124 -126 146 -56 19 -200 20 -258 2z m205 -376 c0 -46 -21 -95 -45 -104
-56 -21 -125 7 -125 50 0 58 46 93 123 94 l47 0 0 -40z"/>
<path d="M5900 3819 c-87 -39 -125 -99 -118 -186 8 -88 58 -137 181 -175 70
-21 107 -46 107 -71 0 -19 -30 -43 -62 -51 -34 -8 -121 10 -171 36 -22 11 -40
18 -42 16 -1 -2 -5 -31 -9 -65 l-7 -62 33 -17 c116 -60 280 -57 368 7 73 53
98 144 61 225 -24 53 -59 77 -157 109 -99 32 -126 50 -122 78 7 50 109 59 201
19 l44 -20 11 61 c6 33 9 64 6 68 -2 4 -29 17 -60 28 -75 29 -201 29 -264 0z"/>
<path d="M6927 3826 c-119 -43 -197 -166 -197 -311 0 -131 54 -228 155 -280
55 -28 65 -30 169 -29 111 0 167 13 223 49 21 14 22 16 6 62 -9 27 -19 51 -22
55 -4 5 -32 -1 -64 -12 -62 -22 -147 -26 -195 -9 -34 12 -72 63 -72 98 0 21 3
21 191 21 l192 0 -6 93 c-3 58 -12 109 -25 137 -24 56 -88 115 -139 129 -52
15 -170 13 -216 -3z m155 -127 c21 -11 48 -66 48 -99 0 -19 -6 -20 -100 -20
-94 0 -100 1 -100 20 0 29 26 76 52 94 26 19 71 21 100 5z"/>
</g>
</svg>
